# xmcd CD database file
#
# Track frame offsets:
#	187
#	24012
#	59060
#
# Disc length: 1102 seconds
#
# Revision: 1
# Processed by: cddbd v1.5.1PL0 Copyright (c) Steve Scherf et al.
# Submitted via: CDex 1.51
#
DISCID=1d044c03
DTITLE=globe - Sa Yo Na Ra
DYEAR=1998
DGENRE=JPop
TTITLE0=Sa Yo Na Ra  Straight Run
TTITLE1=Sa Yo Na Ra  BUZZ mix
TTITLE2=Sa Yo Na Ra  TV mix
EXTD=YEAR: 1998
EXTT0=
EXTT1=
EXTT2=
PLAYORDER=
